<svg width="28" height="28" viewBox="0 0 28 28" fill="none" xmlns="http://www.w3.org/2000/svg">
<path d="M4.12825 20.3665L2.625 25.375H25.375L23.8717 20.3665C23.5474 19.2852 22.8831 18.3372 21.9774 17.6632C21.0717 16.9893 19.9729 16.6252 18.844 16.625H9.156C8.02707 16.6252 6.92827 16.9893 6.0226 17.6632C5.11693 18.3372 4.45263 19.2852 4.12825 20.3665Z" stroke="white"/>
<path d="M14 13.125C16.8995 13.125 19.25 10.7745 19.25 7.875C19.25 4.97551 16.8995 2.625 14 2.625C11.1005 2.625 8.75 4.97551 8.75 7.875C8.75 10.7745 11.1005 13.125 14 13.125Z" stroke="white"/>
</svg>
