<svg width="47" height="46" viewBox="0 0 47 46" fill="none" xmlns="http://www.w3.org/2000/svg">
<path d="M23.5 4.3125H10.2812C9.50218 4.3125 8.75501 4.6154 8.20412 5.15457C7.65324 5.69373 7.34375 6.425 7.34375 7.1875V38.8125" stroke="#F3B637" stroke-width="2"/>
<path d="M41.125 41.6875H10.2812C9.50218 41.6875 8.75501 41.3846 8.20412 40.8454C7.65324 40.3063 7.34375 39.575 7.34375 38.8125C7.34375 38.05 7.65324 37.3187 8.20412 36.7796C8.75501 36.2404 9.50218 35.9375 10.2812 35.9375H39.6562V23" stroke="#F3B637" stroke-width="2"/>
<path d="M33.7812 1.4375L36.6894 8.65375L44.0625 11.5L36.6894 14.3462L33.7812 21.5625L30.8731 14.3462L23.5 11.5L30.8731 8.65375L33.7812 1.4375ZM22.0312 14.375L24.1081 19.5299L29.375 21.5625L24.1081 23.5951L22.0312 28.75L19.9544 23.5951L14.6875 21.5625L19.9544 19.5299L22.0312 14.375Z" fill="#F3B637"/>
</svg>
