<svg width="223" height="30" viewBox="0 0 223 30" fill="none" xmlns="http://www.w3.org/2000/svg">
<path d="M12.888 20.592C12.888 22.752 10.608 24.36 7.104 24.36C3.504 24.36 1.056 22.776 0.792 20.28H4.152C4.344 21.336 5.4 21.96 7.104 21.96C8.472 21.96 9.504 21.36 9.504 20.592C9.504 17.952 1.104 20.28 1.104 15.456C1.104 13.344 3.264 11.64 6.768 11.64C10.368 11.64 12.504 13.2 12.696 15.696H9.336C9.192 14.736 8.328 14.064 6.744 14.064C5.424 14.064 4.464 14.64 4.464 15.432C4.464 18 12.888 15.408 12.888 20.592ZM15.2704 12H18.2704L18.5824 13.536C19.8064 12.336 21.5584 11.64 23.5744 11.64C27.5584 11.64 30.5584 14.352 30.5584 17.976C30.5584 21.648 27.5824 24.36 23.5744 24.36C21.5824 24.36 19.8544 23.688 18.6304 22.488V28.8H15.2704V12ZM27.1984 17.976C27.1984 16.008 25.3744 14.592 22.8544 14.592C20.3344 14.592 18.6304 15.984 18.6304 17.976C18.6304 19.992 20.3344 21.384 22.8544 21.384C25.4224 21.384 27.1984 19.944 27.1984 17.976ZM46.5268 18.84H35.6308C35.9908 20.568 37.5268 21.72 39.5428 21.72C40.9828 21.72 42.1348 21.192 42.7588 20.328H46.1668C45.2548 22.776 42.6868 24.36 39.3988 24.36C35.2708 24.36 32.1748 21.648 32.1748 18.024C32.1748 14.352 35.2468 11.64 39.3988 11.64C43.5028 11.64 46.5748 14.208 46.5748 18.024C46.5748 18.288 46.5748 18.576 46.5268 18.84ZM35.6308 17.16H43.1188C42.7828 15.456 41.3668 14.352 39.3988 14.352C37.4548 14.352 35.9908 15.48 35.6308 17.16ZM63.4478 24H60.4718L60.1358 22.416C58.9118 23.64 57.1598 24.36 55.1198 24.36C51.1358 24.36 48.1357 21.648 48.1357 18.024C48.1357 14.352 51.1118 11.64 55.1198 11.64C57.1358 11.64 58.9118 12.336 60.1358 13.584L60.4718 12H63.4478V24ZM51.4958 18.024C51.4958 19.968 53.3198 21.384 55.8398 21.384C58.3838 21.384 60.0878 20.016 60.0878 18.024C60.0878 16.008 58.3598 14.592 55.8398 14.592C53.3198 14.592 51.4958 16.032 51.4958 18.024ZM84.8151 8.376C84.8151 7.488 85.4391 6.84 86.3991 6.84C87.3111 6.84 87.9351 7.488 87.9351 8.376C87.9351 9.336 87.3111 9.936 86.3991 9.936C85.4391 9.936 84.8151 9.336 84.8151 8.376ZM88.0791 24H84.7191V12H88.0791V24ZM94.5679 18.408V24H91.2079V12H94.2079L94.5439 13.968C95.5999 12.528 97.1839 11.64 99.0559 11.64C102.656 11.64 105.176 14.4 105.176 18.408V24H101.816V18.408C101.816 16.248 100.28 14.736 98.1439 14.736C96.0079 14.736 94.5679 16.248 94.5679 18.408ZM119.408 23.664V22.104C118.184 23.256 116.432 23.928 114.44 23.928C110.456 23.928 107.456 21.36 107.456 17.832C107.456 14.232 110.432 11.64 114.44 11.64C116.48 11.64 118.232 12.312 119.456 13.512L119.792 12H122.768V23.664C122.768 27.336 119.672 30 115.448 30C111.584 30 108.704 27.96 107.936 25.104H111.296C112.064 26.304 113.552 27.072 115.352 27.072C117.752 27.072 119.408 25.704 119.408 23.664ZM110.816 17.808C110.816 19.632 112.64 20.976 115.16 20.976C117.704 20.976 119.408 19.68 119.408 17.808C119.408 15.912 117.68 14.592 115.16 14.592C112.64 14.592 110.816 15.912 110.816 17.808ZM134.465 18.024C134.465 19.944 136.169 21.288 138.449 21.288C140.273 21.288 141.617 20.568 142.169 19.32H145.649C145.025 22.368 142.169 24.36 138.449 24.36C134.249 24.36 131.104 21.648 131.104 18.024C131.104 14.352 134.225 11.64 138.449 11.64C142.145 11.64 144.977 13.584 145.625 16.656H142.145C141.593 15.432 140.249 14.688 138.449 14.688C136.145 14.688 134.465 16.08 134.465 18.024ZM151.334 7.2V24H147.974V7.2H151.334ZM164.957 17.592V12H168.317V24H165.293L164.981 22.008C163.925 23.472 162.341 24.36 160.469 24.36C156.869 24.36 154.349 21.576 154.349 17.592V12H157.709V17.592C157.709 19.752 159.221 21.24 161.357 21.24C163.469 21.24 164.957 19.728 164.957 17.592ZM174.653 22.44L174.341 24H171.341V7.2H174.701V13.512C175.925 12.312 177.653 11.64 179.645 11.64C183.653 11.64 186.629 14.352 186.629 18.024C186.629 21.648 183.629 24.36 179.645 24.36C177.629 24.36 175.877 23.664 174.653 22.44ZM183.269 18.024C183.269 16.032 181.493 14.592 178.925 14.592C176.405 14.592 174.701 16.008 174.701 18.024C174.701 20.016 176.405 21.384 178.925 21.384C181.445 21.384 183.269 19.968 183.269 18.024Z" fill="white"/>
<path d="M73.1522 17.904L71.3762 19.8V24H66.6722V7.2H71.3762V14.184L77.8802 7.2H83.1122L76.2482 14.64L83.4722 24H77.9522L73.1522 17.904Z" fill="#0D003B"/>
<circle cx="193.5" cy="6.5" r="6.5" fill="#0D003B"/>
<circle cx="193.5" cy="6.5" r="3.5" fill="white"/>
</svg>
