<svg width="20" height="24" viewBox="0 0 20 24" fill="none" xmlns="http://www.w3.org/2000/svg">
<mask id="path-1-inside-1_21_46" fill="white">
<path d="M12 0C13.9721 0 15.8313 0.479311 17.4727 1.32227C13.1735 2.44187 10 6.35027 10 11C10 16.501 14.4418 20.9628 19.9346 20.998C17.8193 22.8648 15.043 24 12 24C5.37258 24 0 18.6274 0 12C0 5.37258 5.37258 0 12 0Z"/>
</mask>
<path d="M17.4727 1.32227L17.7247 2.28999L20.2602 1.62968L17.9295 0.432716L17.4727 1.32227ZM19.9346 20.998L20.5962 21.7478L22.56 20.0149L19.941 19.9981L19.9346 20.998ZM12 0V1C13.8081 1 15.5112 1.43909 17.0158 2.21182L17.4727 1.32227L17.9295 0.432716C16.1513 -0.480472 14.1361 -1 12 -1V0ZM17.4727 1.32227L17.2206 0.354543C12.4918 1.58603 9 5.88389 9 11H10H11C11 6.81664 13.8551 3.2977 17.7247 2.28999L17.4727 1.32227ZM10 11H9C9 17.0514 13.8862 21.9593 19.9282 21.998L19.9346 20.998L19.941 19.9981C14.9974 19.9664 11 15.9507 11 11H10ZM19.9346 20.998L19.2729 20.2483C17.3326 21.9605 14.7893 23 12 23V24V25C15.2967 25 18.3059 23.7691 20.5962 21.7478L19.9346 20.998ZM12 24V23C5.92487 23 1 18.0751 1 12H0H-1C-1 19.1797 4.8203 25 12 25V24ZM0 12H1C1 5.92487 5.92487 1 12 1V0V-1C4.8203 -1 -1 4.8203 -1 12H0Z" fill="white" mask="url(#path-1-inside-1_21_46)"/>
</svg>
